<svg xmlns="http://www.w3.org/2000/svg" xmlns:xlink="http://www.w3.org/1999/xlink" width="28" height="28" viewBox="0 0 28 28"><defs><style>.a{fill:none;stroke:#707070;}.b{clip-path:url(#a);}.c{fill:#ef9144;stroke:#ef9144;}</style><clipPath id="a"><rect class="a" width="28" height="28" transform="translate(964 473)"/></clipPath></defs><g class="b" transform="translate(-964 -473)"><path class="c" d="M7.684,7.195l4.151-4.141a.346.346,0,0,0-.489-.489L7.195,6.706,3.054,2.555a.338.338,0,0,0-.489,0,.346.346,0,0,0,0,.489L6.706,7.195,2.555,11.336a.338.338,0,0,0,0,.489.362.362,0,0,0,.5,0L7.195,7.684l4.141,4.141a.362.362,0,0,0,.5,0,.338.338,0,0,0,0-.489Z" transform="translate(970.805 480.05)"/></g></svg>